<svg xmlns="http://www.w3.org/2000/svg" width="19" height="16" fill="none"><path fill="#1976D2" d="M5.975 15.441c7.17 0 11.092-5.94 11.092-11.09 0-.17-.004-.338-.011-.505A7.931 7.931 0 0 0 19 1.828c-.698.31-1.45.52-2.239.614A3.912 3.912 0 0 0 18.476.285 7.82 7.82 0 0 1 16 1.232a3.899 3.899 0 0 0-6.643 3.555A11.068 11.068 0 0 1 1.322.714a3.889 3.889 0 0 0-.528 1.959c0 1.352.689 2.546 1.735 3.245A3.869 3.869 0 0 1 .764 5.43v.05A3.9 3.9 0 0 0 3.89 9.301a3.91 3.91 0 0 1-1.761.067 3.903 3.903 0 0 0 3.642 2.708A7.82 7.82 0 0 1 .93 13.744c-.314 0-.625-.018-.93-.053a11.035 11.035 0 0 0 5.975 1.75Z"/></svg>